<?xml version="1.0" encoding="iso-8859-1"?>
<!-- Generator: Adobe Illustrator 19.0.0, SVG Export Plug-In . SVG Version: 6.00 Build 0)  -->
<svg version="1.1" id="Capa_1" xmlns="http://www.w3.org/2000/svg" xmlns:xlink="http://www.w3.org/1999/xlink" x="0px" y="0px"
	 viewBox="0 0 512 512" style="enable-background:new 0 0 512 512;" xml:space="preserve">
<g>
	<g>
		<g>
			<path d="M452.162,178.676c-0.046-0.754-0.195-1.499-0.441-2.214c-0.08-0.268-0.174-0.533-0.282-0.792
				c-0.403-0.928-0.969-1.776-1.672-2.503l-59.733-59.733c-1.496-1.391-3.42-2.232-5.457-2.385
				c-0.198-0.014-0.377-0.115-0.577-0.115H264.533V8.533C264.533,3.82,260.713,0,256,0c-4.713,0-8.533,3.82-8.533,8.533v102.4H128
				c-0.191,0-0.361,0.097-0.551,0.109c-0.741,0.047-1.472,0.193-2.175,0.433c-0.275,0.082-0.545,0.178-0.809,0.288
				c-0.926,0.402-1.772,0.968-2.498,1.67l-59.733,59.733c-1.403,1.509-2.248,3.452-2.395,5.507
				c-0.011,0.181-0.105,0.344-0.105,0.526V384c0.011,9.421,7.645,17.056,17.067,17.067h170.667v102.4
				c0,4.713,3.82,8.533,8.533,8.533c4.713,0,8.533-3.82,8.533-8.533v-102.4H435.2c9.421-0.011,17.056-7.646,17.067-17.067V179.2
				C452.267,179.018,452.173,178.856,452.162,178.676z M119.467,140.067v30.6h-30.6L119.467,140.067z M247.467,384H76.8V187.733
				h42.667c9.421-0.011,17.056-7.645,17.067-17.067V128h110.933V384z M392.533,140.067l30.6,30.6h-30.6V140.067z M435.2,384H264.533
				V128h110.933v42.667c0.011,9.421,7.645,17.056,17.067,17.067H435.2V384z"/>
			<path d="M131.465,269.853L120.2,295.2c-1.912,4.307,0.028,9.348,4.333,11.262c1.087,0.489,2.266,0.742,3.458,0.742
				c3.376,0.001,6.436-1.986,7.808-5.071l9.127-20.533h34.415l9.126,20.533c1.372,3.084,4.432,5.072,7.808,5.071
				c1.192,0,2.371-0.253,3.458-0.742c4.306-1.914,6.245-6.956,4.333-11.262l-11.264-25.345l-0.101-0.227L169.933,218.4
				c-0.221-0.373-0.472-0.727-0.751-1.059c-0.555-1.135-1.48-2.048-2.623-2.589c-0.303-0.25-0.623-0.478-0.959-0.681
				c-0.065-0.029-0.134-0.017-0.199-0.044c-0.617-0.215-1.256-0.358-1.906-0.426c-0.884-0.321-1.854-0.319-2.737,0.004
				c-0.638,0.068-1.267,0.208-1.874,0.417c-0.071,0.03-0.147,0.017-0.218,0.048c-0.366,0.218-0.714,0.465-1.041,0.738
				c-1.121,0.545-2.025,1.451-2.567,2.573h0c-0.268,0.32-0.51,0.66-0.725,1.018l-22.769,51.231L131.465,269.853z M162.133,242.883
				l9.622,21.65h-19.245L162.133,242.883z"/>
			<path d="M358.4,213.333h-34.133c-2.263-0.001-4.434,0.898-6.035,2.499c-1.6,1.6-2.499,3.771-2.499,6.035v76.8
				c-0.001,2.263,0.898,4.434,2.499,6.035c1.6,1.6,3.771,2.499,6.035,2.499h29.867c11.828,0.049,22.561-6.914,27.336-17.736
				c4.775-10.822,2.683-23.444-5.327-32.147c5.014-4.802,7.852-11.441,7.857-18.383C383.985,224.801,372.532,213.349,358.4,213.333z
				 M354.133,290.133H332.8v-25.6h21.333c7.069,0,12.8,5.731,12.8,12.8C366.933,284.403,361.203,290.133,354.133,290.133z
				 M358.4,247.467h-25.6V230.4h25.6c4.713,0,8.533,3.82,8.533,8.533S363.113,247.467,358.4,247.467z"/>
		</g>
	</g>
</g>
<g>
</g>
<g>
</g>
<g>
</g>
<g>
</g>
<g>
</g>
<g>
</g>
<g>
</g>
<g>
</g>
<g>
</g>
<g>
</g>
<g>
</g>
<g>
</g>
<g>
</g>
<g>
</g>
<g>
</g>
</svg>
